<svg viewBox="0 0 200 72" style="width:100%;height:100%;overflow:visible">
    <defs>
      <linearGradient id="sb-__ID__" x1="0" y1="0" x2="0" y2="1">
        <stop offset="0%" stop-color="#142C3B"/><stop offset="34%" stop-color="#2C4C5D"/><stop offset="58%" stop-color="#6E8C9C"/><stop offset="78%" stop-color="#AFC4CE"/><stop offset="92%" stop-color="#C8D8DF"/><stop offset="100%" stop-color="#9FB4BE"/>
      </linearGradient>
      <linearGradient id="st-__ID__" x1="0" y1="0" x2="0" y2="1"><stop offset="0%" stop-color="#16303F"/><stop offset="100%" stop-color="#3E5D6F"/></linearGradient>
    </defs>
    <g class="pitchg" style="transform-origin:110px 36px">
      <g class="tailg" style="transform-origin:46px 36px">
        <path d="M46 29 C36 22 26 16.5 15 14 C19.5 22 21 29 20.5 36 C21 43 19.5 50 15 58 C26 55.5 36 50 46 43 Z" fill="url(#st-__ID__)"/>
        <path d="M43 33 C33 27 26 22 18 18" stroke="rgba(210,230,238,0.12)" stroke-width="0.8" fill="none"/>
        <path d="M43 39 C33 45 26 50 18 54" stroke="rgba(210,230,238,0.12)" stroke-width="0.8" fill="none"/>
      </g>
      <path d="M139 57.5 C133 62.5 124 63.5 118 61 C124 58.5 131 56.5 135 55.5 Z" fill="rgba(70,95,110,0.6)"/>
      <path d="M112 55.5 C108 60 101 62 97 61 C101 57.5 106 55.5 109 54.5 Z" fill="rgba(70,95,110,0.55)"/>
      <path d="M195 36 C188 27 176 21 158 17 C132 11 98 11 71 19 C58 23 48 29 43 34 L43 38 C48 43 58 49 71 53 C98 61 132 61 158 55 C176 51 188 45 195 36 Z" fill="url(#sb-__ID__)"/>
      <path d="M122 14.5 C115 7.5 101 6 92 9 C97 13.5 108 16 118 16.5 Z" fill="rgba(23,44,58,0.9)"/>
      <path d="M146 17.5 C150 14.5 155 14.5 157 16.5 C154 18.5 149 19 146 17.5 Z" fill="rgba(23,44,58,0.65)"/>
      <circle cx="78" cy="23" r="1.3" fill="rgba(8,18,26,0.5)"/><circle cx="92" cy="19" r="1.1" fill="rgba(8,18,26,0.5)"/><circle cx="107" cy="24" r="1.4" fill="rgba(8,18,26,0.5)"/><circle cx="121" cy="19.5" r="1.1" fill="rgba(8,18,26,0.5)"/><circle cx="136" cy="25" r="1.3" fill="rgba(8,18,26,0.5)"/><circle cx="150" cy="21" r="1" fill="rgba(8,18,26,0.5)"/><circle cx="114" cy="30" r="1" fill="rgba(8,18,26,0.5)"/><circle cx="85" cy="29" r="0.9" fill="rgba(8,18,26,0.5)"/>
      <path d="M70 18 C100 11 138 11 164 18" stroke="rgba(200,240,238,0.1)" stroke-width="1.2" fill="none" stroke-linecap="round"/>
      <path d="M75 52 C102 59 132 59 156 54" stroke="rgba(220,240,245,0.14)" stroke-width="1" fill="none"/>
      <path d="M55 36.5 C95 33.5 140 33.5 176 35" stroke="rgba(190,215,225,0.16)" stroke-width="0.8" fill="none"/>
      <path d="M162 21 C154 27 153 44 161 51" stroke="rgba(6,20,30,0.45)" stroke-width="1.4" fill="none"/>
      <path d="M168 23 C162 28 161 43 167 48" stroke="rgba(6,20,30,0.25)" stroke-width="1" fill="none"/>
      <path d="M195 36 C190 38 185 39.5 181 39.5" stroke="rgba(6,16,24,0.55)" stroke-width="1.1" fill="none"/>
      <g class="pectg" style="transform-origin:150px 45px">
        <path d="M150 44 C143 50 134 55 126 57 C133 58.5 143 56 151 49 Z" fill="rgba(130,160,175,0.55)" stroke="rgba(200,230,240,0.15)" stroke-width="0.5"/>
      </g>
      <circle cx="178.5" cy="29.5" r="3.9" fill="none" stroke="rgba(200,240,238,0.28)" stroke-width="0.8"/>
      <circle cx="178.5" cy="29.5" r="3.2" fill="#0A151D"/>
      <circle cx="179.6" cy="28.4" r="1" fill="rgba(230,245,248,0.85)"/>
    </g></svg>
