<svg viewBox="0 0 156 104" style="width:100%;height:100%;overflow:visible">
    <defs>
      <linearGradient id="tb-__ID__" x1="0" y1="0" x2="1" y2="1">
        <stop offset="0%" stop-color="#4E5C48"/><stop offset="45%" stop-color="#6E7C64"/><stop offset="100%" stop-color="#55634F"/>
      </linearGradient>
      <linearGradient id="tbt-__ID__" x1="0" y1="0" x2="0" y2="1"><stop offset="0%" stop-color="#485646"/><stop offset="100%" stop-color="#5C6A56"/></linearGradient>
    </defs>
    <g class="pitchg" style="transform-origin:82px 54px">
      <g class="tailg" style="transform-origin:26px 54px">
        <path d="M26 42 C17 38 9 38 4 42 C8 48 8 58 4 64 C9 68 17 68 26 62 Z" fill="url(#tbt-__ID__)"/>
        <path d="M22 45 C14 43 10 43 7 45 M22 59 C14 61 10 61 7 59" stroke="rgba(200,215,195,0.12)" stroke-width="0.8" fill="none"/>
      </g>
      <path d="M148 52 C144 34 126 18 100 12 C72 5.5 44 12 28 30 C18 41 14 52 16 62 C20 78 40 92 68 96 C98 100.5 126 92 140 74 C146 66 149 59 148 52 Z" stroke="rgba(104,120,100,0.5)" stroke-width="9" fill="none"/>
      <path d="M148 52 C144 34 126 18 100 12 C72 5.5 44 12 28 30 C18 41 14 52 16 62 C20 78 40 92 68 96 C98 100.5 126 92 140 74 C146 66 149 59 148 52 Z" stroke="rgba(56,70,56,0.5)" stroke-width="8" stroke-dasharray="2.2 3.4" fill="none"/>
      <path d="M148 52 C144 34 126 18 100 12 C72 5.5 44 12 28 30 C18 41 14 52 16 62 C20 78 40 92 68 96 C98 100.5 126 92 140 74 C146 66 149 59 148 52 Z" fill="url(#tb-__ID__)"/>
      <ellipse cx="60" cy="40" rx="4" ry="3.0" fill="rgba(38,48,38,0.45)"/><ellipse cx="84" cy="30" rx="3.4" ry="2.5" fill="rgba(38,48,38,0.45)"/><ellipse cx="104" cy="46" rx="4.4" ry="3.3" fill="rgba(38,48,38,0.45)"/><ellipse cx="76" cy="62" rx="3.8" ry="2.8" fill="rgba(38,48,38,0.45)"/><ellipse cx="52" cy="58" rx="3" ry="2.3" fill="rgba(38,48,38,0.45)"/><ellipse cx="96" cy="70" rx="3.2" ry="2.4" fill="rgba(38,48,38,0.45)"/><ellipse cx="116" cy="58" rx="2.8" ry="2.1" fill="rgba(38,48,38,0.45)"/><ellipse cx="68" cy="24" rx="2.6" ry="2.0" fill="rgba(38,48,38,0.45)"/><ellipse cx="44" cy="44" rx="2.4" ry="1.8" fill="rgba(38,48,38,0.45)"/><ellipse cx="88" cy="50" rx="2.2" ry="1.7" fill="rgba(38,48,38,0.45)"/><circle cx="70" cy="36" r="1.4" fill="rgba(184,194,172,0.3)"/><circle cx="92" cy="42" r="1.2" fill="rgba(184,194,172,0.3)"/><circle cx="58" cy="50" r="1.3" fill="rgba(184,194,172,0.3)"/><circle cx="108" cy="36" r="1.1" fill="rgba(184,194,172,0.3)"/><circle cx="80" cy="74" r="1.2" fill="rgba(184,194,172,0.3)"/><circle cx="100" cy="60" r="1" fill="rgba(184,194,172,0.3)"/><circle cx="48" cy="34" r="1" fill="rgba(184,194,172,0.3)"/><circle cx="120" cy="48" r="1.1" fill="rgba(184,194,172,0.3)"/>
      <path d="M34 28 C60 10 96 6 128 20" stroke="rgba(200,240,238,0.08)" stroke-width="1.1" fill="none" stroke-linecap="round"/>
      <path d="M120 44 C114 50 114 62 121 68" stroke="rgba(24,32,24,0.5)" stroke-width="1.3" fill="none"/>
      <path d="M147 50 C143 53 139 54.5 135 54.5" stroke="rgba(16,22,16,0.55)" stroke-width="1.1" fill="none"/>
      <circle cx="118" cy="30" r="4" fill="none" stroke="rgba(200,240,238,0.24)" stroke-width="0.8"/>
      <circle cx="118" cy="30" r="3.3" fill="#101710"/><circle cx="119.2" cy="28.9" r="1" fill="rgba(230,245,248,0.8)"/>
      <circle cx="128" cy="38" r="3.7" fill="none" stroke="rgba(200,240,238,0.24)" stroke-width="0.8"/>
      <circle cx="128" cy="38" r="3" fill="#101710"/><circle cx="129" cy="37" r="0.9" fill="rgba(230,245,248,0.8)"/>
    </g></svg>
